<svg width="25" height="25" viewBox="0 0 25 25" fill="none" xmlns="http://www.w3.org/2000/svg">
<path d="M19.9644 7.15744V6.78075C19.9634 5.96452 19.7214 5.16676 19.2687 4.48758C18.816 3.8084 18.1727 3.27806 17.4197 2.96311C16.6667 2.64816 15.8374 2.56263 15.036 2.71726C14.2345 2.87188 13.4966 3.25977 12.9148 3.83224C12.8803 3.86693 12.8531 3.90809 12.8347 3.95335C12.8163 3.9986 12.807 4.04706 12.8074 4.09592V12.4508C12.8076 12.5187 12.8261 12.5853 12.8611 12.6436C12.896 12.7018 12.946 12.7495 13.0058 12.7817C13.0657 12.8138 13.1331 12.8292 13.2009 12.8261C13.2688 12.8231 13.3345 12.8018 13.3913 12.7644C14.1076 12.3051 14.9398 12.0588 15.7908 12.0544C15.9877 12.0507 16.1786 12.1226 16.3242 12.2554C16.4697 12.3882 16.5589 12.5717 16.5733 12.7682C16.5787 12.8704 16.5632 12.9726 16.5277 13.0686C16.4923 13.1647 16.4376 13.2524 16.3671 13.3266C16.2966 13.4008 16.2118 13.4599 16.1177 13.5002C16.0236 13.5405 15.9223 13.5612 15.8199 13.5611C15.0207 13.5611 14.2542 13.8786 13.6891 14.4437C13.1239 15.0089 12.8065 15.7754 12.8065 16.5746V19.7651C12.8064 19.8215 12.8189 19.8771 12.8432 19.928C12.8675 19.9788 12.9029 20.0236 12.9468 20.0589C13.4814 20.5014 14.1108 20.8145 14.7861 20.9741C15.4615 21.1337 16.1645 21.1354 16.8406 20.9791C17.5167 20.8227 18.1476 20.5126 18.6844 20.0727C19.2211 19.6329 19.6491 19.0752 19.9352 18.4429C19.964 18.3794 19.9746 18.309 19.9658 18.2398C19.9569 18.1706 19.929 18.1052 19.8852 18.0508C19.8413 17.9965 19.7832 17.9555 19.7174 17.9323C19.6516 17.9091 19.5806 17.9046 19.5124 17.9194C19.0429 18.027 18.5627 18.0813 18.081 18.0813H17.3531C17.1587 18.0837 16.9706 18.0126 16.8265 17.8821C16.6824 17.7516 16.593 17.5715 16.5761 17.3779C16.5693 17.2748 16.5837 17.1715 16.6185 17.0742C16.6533 16.977 16.7077 16.8879 16.7783 16.8126C16.849 16.7373 16.9344 16.6773 17.0292 16.6363C17.124 16.5954 17.2262 16.5744 17.3295 16.5746H18.0829C18.87 16.5758 19.6456 16.3858 20.343 16.0209C21.1689 15.5907 21.855 14.934 22.3209 14.1277C22.7869 13.3215 23.0132 12.3991 22.9735 11.4687C22.9337 10.5384 22.6296 9.63862 22.0966 8.87501C21.5636 8.11141 20.824 7.51559 19.9644 7.15744ZM18.8344 10.5476H18.4577C17.5586 10.5476 16.6963 10.1904 16.0605 9.55465C15.4247 8.91887 15.0675 8.05657 15.0675 7.15744V6.78075C15.0675 6.58095 15.1469 6.38932 15.2882 6.24804C15.4295 6.10675 15.6211 6.02738 15.8209 6.02738C16.0207 6.02738 16.2123 6.10675 16.3536 6.24804C16.4949 6.38932 16.5743 6.58095 16.5743 6.78075V7.15744C16.5743 7.40477 16.623 7.64969 16.7176 7.8782C16.8123 8.1067 16.951 8.31433 17.1259 8.48922C17.4791 8.84244 17.9582 9.04087 18.4577 9.04087H18.8344C19.0342 9.04087 19.2258 9.12024 19.3671 9.26153C19.5084 9.40281 19.5877 9.59443 19.5877 9.79424C19.5877 9.99405 19.5084 10.1857 19.3671 10.327C19.2258 10.4682 19.0342 10.5476 18.8344 10.5476ZM8.28717 2.63721C7.18861 2.63845 6.13541 3.0754 5.35862 3.8522C4.58182 4.629 4.14487 5.6822 4.14362 6.78075V7.15744C3.28415 7.51578 2.54466 8.11176 2.01188 8.87547C1.4791 9.63918 1.17512 10.539 1.13558 11.4693C1.09604 12.3997 1.32259 13.322 1.78865 14.1282C2.25471 14.9343 2.94096 15.5909 3.76694 16.0209C4.46434 16.3858 5.23995 16.5758 6.02705 16.5746H6.755C6.94968 16.5717 7.13823 16.6427 7.28272 16.7732C7.42721 16.9037 7.51692 17.0841 7.5338 17.278C7.54064 17.3811 7.52622 17.4845 7.49144 17.5817C7.45665 17.6789 7.40224 17.768 7.33159 17.8433C7.26094 17.9187 7.17556 17.9787 7.08074 18.0196C6.98592 18.0605 6.8837 18.0816 6.78042 18.0813H6.02705C5.54497 18.0815 5.06443 18.0269 4.5947 17.9184C4.52654 17.9035 4.45558 17.9079 4.38974 17.931C4.3239 17.9541 4.26577 17.995 4.22183 18.0492C4.17789 18.1034 4.14986 18.1687 4.14087 18.2379C4.13189 18.3071 4.14229 18.3774 4.17093 18.4411C4.45696 19.0734 4.88498 19.6313 5.4217 20.0714C5.95842 20.5114 6.5894 20.8218 7.26558 20.9783C7.94176 21.1348 8.64492 21.1333 9.32042 20.9738C9.99591 20.8144 10.6255 20.5013 11.1603 20.0589C11.2042 20.0236 11.2396 19.9788 11.2639 19.928C11.2882 19.8771 11.3007 19.8215 11.3007 19.7651V16.5746C11.3007 15.7754 10.9832 15.0089 10.418 14.4437C9.85289 13.8786 9.08639 13.5611 8.28717 13.5611C8.18482 13.5612 8.08351 13.5405 7.98943 13.5002C7.89535 13.4599 7.81047 13.4008 7.73997 13.3266C7.66947 13.2524 7.61483 13.1647 7.57938 13.0686C7.54393 12.9726 7.52842 12.8704 7.5338 12.7682C7.54822 12.5715 7.63751 12.3879 7.78327 12.2551C7.92903 12.1223 8.12016 12.0505 8.3173 12.0544C9.16827 12.0588 10.0004 12.3051 10.7168 12.7644C10.7735 12.8018 10.8393 12.8231 10.9071 12.8261C10.975 12.8292 11.0424 12.8138 11.1022 12.7817C11.162 12.7495 11.2121 12.7018 11.247 12.6436C11.2819 12.5853 11.3005 12.5187 11.3007 12.4508V4.09592C11.301 3.99705 11.2624 3.902 11.1933 3.8313C10.4198 3.0659 9.37537 2.63677 8.28717 2.63721ZM9.04054 7.15744C9.04054 8.05657 8.68336 8.91887 8.04758 9.55465C7.4118 10.1904 6.5495 10.5476 5.65037 10.5476H5.27368C5.07387 10.5476 4.88225 10.4682 4.74097 10.327C4.59968 10.1857 4.52031 9.99405 4.52031 9.79424C4.52031 9.59443 4.59968 9.40281 4.74097 9.26153C4.88225 9.12024 5.07387 9.04087 5.27368 9.04087H5.65037C5.8977 9.04087 6.14262 8.99215 6.37112 8.8975C6.59963 8.80285 6.80726 8.66412 6.98215 8.48922C7.15705 8.31433 7.29578 8.1067 7.39043 7.8782C7.48508 7.64969 7.5338 7.40477 7.5338 7.15744V6.78075C7.5338 6.58095 7.61317 6.38932 7.75445 6.24804C7.89574 6.10675 8.08736 6.02738 8.28717 6.02738C8.48697 6.02738 8.6786 6.10675 8.81988 6.24804C8.96117 6.38932 9.04054 6.58095 9.04054 6.78075V7.15744Z" fill="url(#paint0_linear_12949_169)"/>
<defs>
<linearGradient id="paint0_linear_12949_169" x1="1.13082" y1="21.095" x2="19.3296" y2="-0.445184" gradientUnits="userSpaceOnUse">
<stop stop-color="#195FAA"/>
<stop offset="1" stop-color="#258FFF"/>
</linearGradient>
</defs>
</svg>
