<svg width="46" height="46" viewBox="0 0 46 46" fill="none" xmlns="http://www.w3.org/2000/svg">
<path d="M23 4.3125C19.304 4.3125 15.6909 5.4085 12.6178 7.46191C9.54465 9.51532 7.14942 12.4339 5.73501 15.8486C4.3206 19.2633 3.95052 23.0207 4.67158 26.6458C5.39264 30.2708 7.17246 33.6006 9.78595 36.2141C12.3994 38.8276 15.7292 40.6074 19.3543 41.3284C22.9793 42.0495 26.7367 41.6794 30.1514 40.265C33.5661 38.8506 36.4847 36.4554 38.5381 33.3822C40.5915 30.3091 41.6875 26.696 41.6875 23C41.6818 18.0455 39.7111 13.2956 36.2078 9.79224C32.7044 6.2889 27.9545 4.31821 23 4.3125ZM37.0803 15.8125H30.6745C29.8678 12.8529 28.5082 10.0727 26.6674 7.61875C28.8914 8.15301 30.9736 9.16186 32.7713 10.5761C34.5689 11.9904 36.0394 13.7767 37.0821 15.8125H37.0803ZM38.8125 23C38.8138 24.4583 38.6124 25.9097 38.2141 27.3125H31.2944C31.7352 24.4544 31.7352 21.5456 31.2944 18.6875H38.2141C38.6124 20.0903 38.8138 21.5417 38.8125 23ZM23 7.72656C25.1525 10.0311 26.7504 12.7967 27.6719 15.8125H18.3281C19.2487 12.7963 20.8467 10.0305 23 7.72656ZM18.3281 30.1875H27.6719C26.7514 33.2037 25.1533 35.9695 23 38.2734C20.8475 35.9689 19.2496 33.2033 18.3281 30.1875ZM17.6274 27.3125C17.1338 24.4587 17.1338 21.5413 17.6274 18.6875H28.387C28.8806 21.5413 28.8806 24.4587 28.387 27.3125H17.6274ZM26.6746 38.3813C28.5153 35.9273 29.8749 33.1471 30.6816 30.1875H37.0893C36.0459 32.2241 34.5742 34.0108 32.7753 35.4252C30.9763 36.8395 28.8927 37.8479 26.6674 38.3813H26.6746Z" fill="url(#paint0_linear_12945_373)"/>
<defs>
<linearGradient id="paint0_linear_12945_373" x1="4.31192" y1="41.6873" x2="41.6871" y2="4.31204" gradientUnits="userSpaceOnUse">
<stop stop-color="#195FAA"/>
<stop offset="1" stop-color="#258FFF"/>
</linearGradient>
</defs>
</svg>
