<svg width="16" height="16" viewBox="0 0 16 16" fill="none" xmlns="http://www.w3.org/2000/svg">
<path d="M3.33329 6H2.99996C2.37142 6 2.05715 6 1.86189 6.19526C1.66663 6.39053 1.66663 6.7048 1.66663 7.33333V13C1.66663 13.6285 1.66663 13.9428 1.86189 14.1381C2.05715 14.3333 2.37142 14.3333 2.99996 14.3333H3.33329C3.96183 14.3333 4.2761 14.3333 4.47137 14.1381C4.66663 13.9428 4.66663 13.6285 4.66663 13V7.33333C4.66663 6.7048 4.66663 6.39053 4.47137 6.19526C4.2761 6 3.96183 6 3.33329 6Z" fill="#258FFF"/>
<path d="M4.66663 3.16699C4.66663 3.99542 3.99505 4.66699 3.16663 4.66699C2.3382 4.66699 1.66663 3.99542 1.66663 3.16699C1.66663 2.33857 2.3382 1.66699 3.16663 1.66699C3.99505 1.66699 4.66663 2.33857 4.66663 3.16699Z" fill="#258FFF"/>
<path d="M7.884 6H7.33333C6.7048 6 6.39053 6 6.19526 6.19526C6 6.39053 6 6.7048 6 7.33333V13C6 13.6285 6 13.9428 6.19526 14.1381C6.39053 14.3333 6.7048 14.3333 7.33333 14.3333H7.66667C8.2952 14.3333 8.60947 14.3333 8.80473 14.1381C9 13.9428 9 13.6285 9 13L9.00007 10.6667C9.00007 9.5622 9.35207 8.66673 10.3919 8.66673C10.9118 8.66673 11.3333 9.11447 11.3333 9.66673V12.6667C11.3333 13.2953 11.3333 13.6095 11.5286 13.8048C11.7238 14.0001 12.0381 14.0001 12.6667 14.0001H12.9991C13.6275 14.0001 13.9417 14.0001 14.137 13.8049C14.3323 13.6097 14.3323 13.2955 14.3325 12.6671L14.3334 9.00013C14.3334 7.34333 12.7576 6.00016 11.1979 6.00016C10.3099 6.00016 9.5178 6.43539 9.00007 7.116C9 6.69593 9 6.48595 8.9088 6.33C8.851 6.23124 8.76873 6.14902 8.67 6.09125C8.51407 6 8.30407 6 7.884 6Z" fill="#258FFF"/>
</svg>
