<svg width="89" height="51" viewBox="0 0 89 51" fill="none" xmlns="http://www.w3.org/2000/svg">
<g clip-path="url(#clip0_12661_1126)">
<path d="M66.1511 19.0326C66.4534 19.3569 66.5711 19.7044 66.4783 19.9989C66.3855 20.2933 66.0897 20.5105 65.656 20.6027L59.1159 21.9928L63.6759 26.8828L65.3109 26.5353C66.1782 26.3509 67.2502 26.4317 68.291 26.7599C69.3319 27.0881 70.2563 27.6368 70.861 28.2852L75.421 33.1752C76.0257 33.8237 76.2611 34.5188 76.0755 35.1077C75.8898 35.6966 75.2982 36.131 74.431 36.3153L67.8908 37.7055C67.0236 37.8898 65.9516 37.809 64.9107 37.4808C63.8699 37.1527 62.9455 36.604 62.3408 35.9555L57.7807 31.0655C57.1761 30.4171 56.9406 29.7219 57.1263 29.1331C57.312 28.5442 57.9035 28.1098 58.7708 27.9254L60.4058 27.5779L55.8458 22.6879L32.9553 27.5534L37.5154 32.4434L39.1504 32.0959C40.0177 31.9115 41.0896 31.9923 42.1305 32.3205C43.1713 32.6487 44.0958 33.1974 44.7005 33.8458L49.2605 38.7358C49.8652 39.3843 50.1006 40.0794 49.9149 40.6683C49.7292 41.2572 49.1377 41.6916 48.2704 41.8759L41.7303 43.2661C40.863 43.4504 39.791 43.3696 38.7502 43.0414C37.7093 42.7133 36.7849 42.1646 36.1802 41.5161L31.6202 36.6261C31.0155 35.9777 30.7801 35.2825 30.9658 34.6937C31.1514 34.1048 31.743 33.6704 32.6103 33.486L34.2453 33.1385L29.6853 28.2485L23.1451 29.6386C22.7115 29.7308 22.1755 29.6904 21.6551 29.5263C21.1347 29.3622 20.6724 29.0879 20.3701 28.7637C20.0678 28.4394 19.95 28.0919 20.0429 27.7974C20.1357 27.503 20.4315 27.2858 20.8651 27.1936L40.4855 23.0232L37.0655 19.3557L35.4305 19.7032C34.5632 19.8876 33.4913 19.8067 32.4504 19.4786C31.4096 19.1504 30.4851 18.6017 29.8804 17.9533L25.3204 13.0633C24.7157 12.4148 24.4803 11.7197 24.666 11.1308C24.8517 10.5419 25.4432 10.1075 26.3105 9.92318L32.8506 8.53303C33.7179 8.34868 34.7899 8.42949 35.8307 8.75766C36.8715 9.08584 37.796 9.63451 38.4007 10.283L42.9607 15.173C43.5654 15.8214 43.8008 16.5166 43.6151 17.1054C43.4295 17.6943 42.8379 18.1287 41.9706 18.3131L40.3356 18.6606L43.7556 22.3281L63.376 18.1577C63.8097 18.0655 64.3457 18.1059 64.8661 18.27C65.3865 18.4341 65.8487 18.7084 66.1511 19.0326Z" fill="#0D242E"/>
</g>
<defs>
<clipPath id="clip0_12661_1126">
<rect width="53.49" height="53.49" fill="white" transform="matrix(0.978148 -0.207912 0.681998 0.731354 0 11.1212)"/>
</clipPath>
</defs>
</svg>
