<svg width="16" height="16" viewBox="0 0 16 16" fill="none" xmlns="http://www.w3.org/2000/svg">
<path fill-rule="evenodd" clip-rule="evenodd" d="M4.46449 2.18083C5.57049 1.95538 6.76093 1.83301 8 1.83301C9.23907 1.83301 10.4295 1.95538 11.5355 2.18083L11.6203 2.19811C12.8834 2.4552 13.725 2.6265 14.4503 3.55895C15.1677 4.48139 15.1673 5.55114 15.1667 7.20794V8.79141C15.1673 10.4482 15.1677 11.5179 14.4503 12.4404C13.725 13.3729 12.8834 13.5441 11.6203 13.8012L11.5355 13.8185C10.4295 14.0439 9.23907 14.1663 8 14.1663C6.76093 14.1663 5.57049 14.0439 4.46449 13.8185L4.37964 13.8012C3.11655 13.5441 2.27495 13.3729 1.54972 12.4404C0.832268 11.5179 0.832668 10.4482 0.833288 8.79141V7.20794C0.832668 5.55114 0.832268 4.48139 1.54972 3.55895C2.27495 2.6265 3.11655 2.4552 4.37964 2.19811L4.46449 2.18083ZM7.52967 5.50117C7.87533 5.64625 8.29527 5.88076 8.80867 6.16749C8.87627 6.20523 8.9442 6.24273 9.0122 6.28026C9.3478 6.46553 9.68533 6.65187 9.9966 6.87567C10.2763 7.07681 10.5417 7.32607 10.6296 7.68961C10.6789 7.89367 10.6789 8.10567 10.6296 8.30974C10.5417 8.67327 10.2763 8.92254 9.9966 9.12367C9.68533 9.34747 9.34773 9.53387 9.01213 9.71914C8.94413 9.75667 8.87627 9.79414 8.80867 9.83187C8.29527 10.1186 7.8754 10.3531 7.52967 10.4982C6.96767 10.734 6.37173 10.7531 5.88192 10.3518C5.57536 10.1006 5.46699 9.74094 5.41945 9.37854C5.30455 8.50261 5.30449 7.49714 5.41945 6.62082C5.46699 6.25838 5.57536 5.89873 5.88192 5.64755C6.37173 5.24623 6.96767 5.26531 7.52967 5.50117Z" fill="#258FFF"/>
</svg>
